<?xml version="1.0" encoding="iso-8859-1"?>
<!-- Generator: Adobe Illustrator 19.0.0, SVG Export Plug-In . SVG Version: 6.00 Build 0)  -->
<svg version="1.1" id="Layer_1" xmlns="http://www.w3.org/2000/svg" xmlns:xlink="http://www.w3.org/1999/xlink" x="0px" y="0px"
	 viewBox="0 0 496.2 496.2" style="enable-background:new 0 0 496.2 496.2;" xml:space="preserve">
<path style="fill:#334D5C;" d="M496.2,248.1C496.2,111.1,385.1,0,248.1,0S0,111.1,0,248.1s111.1,248.1,248.1,248.1
	S496.2,385.1,496.2,248.1z"/>
<g>
	<path style="fill:#4ABC96;" d="M146.3,144.6V98.9c0-0.9-0.7-1.6-1.6-1.6H99c-0.9,0-1.6,0.7-1.6,1.6v45.7c0,0.9,0.7,1.6,1.6,1.6
		h45.7C145.5,146.3,146.3,145.6,146.3,144.6z"/>
	<path style="fill:#4ABC96;" d="M146.3,195.2v-45.7c0-0.9-0.7-1.6-1.6-1.6H99c-0.9,0-1.6,0.7-1.6,1.6v45.7c0,0.9,0.7,1.6,1.6,1.6
		h45.7C145.5,196.8,146.3,196.1,146.3,195.2z"/>
	<path style="fill:#4ABC96;" d="M146.3,245.7V200c0-0.9-0.7-1.6-1.6-1.6H99c-0.9,0-1.6,0.7-1.6,1.6v45.7c0,0.9,0.7,1.6,1.6,1.6h45.7
		C145.5,247.3,146.3,246.6,146.3,245.7z"/>
	<path style="fill:#4ABC96;" d="M146.3,296.2v-45.7c0-0.9-0.7-1.6-1.6-1.6H99c-0.9,0-1.6,0.7-1.6,1.6v45.7c0,0.9,0.7,1.6,1.6,1.6
		h45.7C145.5,297.8,146.3,297.1,146.3,296.2z"/>
</g>
<g>
	<path style="fill:#E2D71A;" d="M296.1,248.9h-45.7c-0.9,0-1.6,0.7-1.6,1.6v45.7c0,0.9,0.7,1.6,1.6,1.6h45.7c0.9,0,1.6-0.7,1.6-1.6
		v-45.7C297.7,249.7,297,248.9,296.1,248.9z"/>
	<path style="fill:#E2D71A;" d="M346.6,248.9h-45.7c-0.9,0-1.6,0.7-1.6,1.6v45.7c0,0.9,0.7,1.6,1.6,1.6h45.7c0.9,0,1.6-0.7,1.6-1.6
		v-45.7C348.3,249.7,347.5,248.9,346.6,248.9z"/>
	<path style="fill:#E2D71A;" d="M296.1,299.5h-45.7c-0.9,0-1.6,0.7-1.6,1.6v45.7c0,0.9,0.7,1.6,1.6,1.6h45.7c0.9,0,1.6-0.7,1.6-1.6
		v-45.7C297.7,300.2,297,299.5,296.1,299.5z"/>
	<path style="fill:#E2D71A;" d="M346.6,299.5h-45.7c-0.9,0-1.6,0.7-1.6,1.6v45.7c0,0.9,0.7,1.6,1.6,1.6h45.7c0.9,0,1.6-0.7,1.6-1.6
		v-45.7C348.3,300.2,347.5,299.5,346.6,299.5z"/>
</g>
<g>
	<path style="fill:#EA4949;" d="M196.8,296.2v-45.7c0-0.9-0.7-1.6-1.6-1.6h-45.7c-0.9,0-1.6,0.7-1.6,1.6v45.7c0,0.9,0.7,1.6,1.6,1.6
		h45.7C196.1,297.8,196.8,297.1,196.8,296.2z"/>
	<path style="fill:#EA4949;" d="M196.8,346.7V301c0-0.9-0.7-1.6-1.6-1.6h-45.7c-0.9,0-1.6,0.7-1.6,1.6v45.7c0,0.9,0.7,1.6,1.6,1.6
		h45.7C196.1,348.3,196.8,347.6,196.8,346.7z"/>
	<path style="fill:#EA4949;" d="M146.3,346.7V301c0-0.9-0.7-1.6-1.6-1.6H99c-0.9,0-1.6,0.7-1.6,1.6v45.7c0,0.9,0.7,1.6,1.6,1.6h45.7
		C145.5,348.3,146.3,347.6,146.3,346.7z"/>
	<path style="fill:#EA4949;" d="M146.3,397.2v-45.7c0-0.9-0.7-1.6-1.6-1.6H99c-0.9,0-1.6,0.7-1.6,1.6v45.7c0,0.9,0.7,1.6,1.6,1.6
		h45.7C145.5,398.8,146.3,398.1,146.3,397.2z"/>
</g>
<g>
	<path style="fill:#64A80D;" d="M398.9,200v45.7c0,0.9-0.7,1.6-1.6,1.6h-45.7c-0.9,0-1.6-0.7-1.6-1.6V200c0-0.9,0.7-1.6,1.6-1.6
		h45.7C398.1,198.3,398.9,199.1,398.9,200z"/>
	<path style="fill:#64A80D;" d="M398.9,149.4v45.7c0,0.9-0.7,1.6-1.6,1.6h-45.7c-0.9,0-1.6-0.7-1.6-1.6v-45.7c0-0.9,0.7-1.6,1.6-1.6
		h45.7C398.1,147.8,398.9,148.5,398.9,149.4z"/>
	<path style="fill:#64A80D;" d="M348.4,149.4v45.7c0,0.9-0.7,1.6-1.6,1.6h-45.7c-0.9,0-1.6-0.7-1.6-1.6v-45.7c0-0.9,0.7-1.6,1.6-1.6
		h45.7C347.6,147.8,348.4,148.5,348.4,149.4z"/>
	<path style="fill:#64A80D;" d="M348.4,98.9v45.7c0,0.9-0.7,1.6-1.6,1.6h-45.7c-0.9,0-1.6-0.7-1.6-1.6V98.9c0-0.9,0.7-1.6,1.6-1.6
		h45.7C347.6,97.3,348.4,98,348.4,98.9z"/>
</g>
<g>
	<path style="fill:#337180;" d="M198.2,351.5v45.7c0,0.9,0.7,1.6,1.6,1.6h45.7c0.9,0,1.6-0.7,1.6-1.6v-45.7c0-0.9-0.7-1.6-1.6-1.6
		h-45.7C198.9,349.9,198.2,350.6,198.2,351.5z"/>
	<path style="fill:#337180;" d="M147.7,351.5v45.7c0,0.9,0.7,1.6,1.6,1.6H195c0.9,0,1.6-0.7,1.6-1.6v-45.7c0-0.9-0.7-1.6-1.6-1.6
		h-45.7C148.4,349.9,147.7,350.6,147.7,351.5z"/>
	<path style="fill:#337180;" d="M198.2,301v45.7c0,0.9,0.7,1.6,1.6,1.6h45.7c0.9,0,1.6-0.7,1.6-1.6V301c0-0.9-0.7-1.6-1.6-1.6h-45.7
		C198.9,299.4,198.2,300.1,198.2,301z"/>
	<path style="fill:#337180;" d="M198.2,250.5v45.7c0,0.9,0.7,1.6,1.6,1.6h45.7c0.9,0,1.6-0.7,1.6-1.6v-45.7c0-0.9-0.7-1.6-1.6-1.6
		h-45.7C198.9,248.9,198.2,249.6,198.2,250.5z"/>
</g>
<g>
	<path style="fill:#E5AA17;" d="M351.5,350h45.6c0.9,0,1.6,0.7,1.6,1.6v45.7c0,0.9-0.7,1.6-1.6,1.6h-45.7c-0.9,0-1.6-0.7-1.6-1.6
		v-45.7C349.8,350.7,350.6,350,351.5,350z"/>
	<path style="fill:#E5AA17;" d="M351.5,299.5h45.6c0.9,0,1.6,0.7,1.6,1.6v45.7c0,0.9-0.7,1.6-1.6,1.6h-45.7c-0.9,0-1.6-0.7-1.6-1.6
		v-45.7C349.8,300.2,350.6,299.5,351.5,299.5z"/>
	<path style="fill:#E5AA17;" d="M300.9,350h45.7c0.9,0,1.6,0.7,1.6,1.6v45.7c0,0.9-0.7,1.6-1.6,1.6h-45.7c-0.9,0-1.6-0.7-1.6-1.6
		v-45.7C299.3,350.7,300,350,300.9,350z"/>
	<path style="fill:#E5AA17;" d="M250.4,350h45.7c0.9,0,1.6,0.7,1.6,1.6v45.7c0,0.9-0.7,1.6-1.6,1.6h-45.7c-0.9,0-1.6-0.7-1.6-1.6
		v-45.7C248.8,350.7,249.5,350,250.4,350z"/>
</g>
<g>
	<path style="fill:#FC6363;" d="M195.2,248.9h-45.7c-0.9,0-1.6,0.7-1.6,1.6v45.7c0,0.9,0.7,1.6,1.6,1.6h45.7c0.9,0,1.6-0.7,1.6-1.6
		v-45.7C196.8,249.6,196.1,248.9,195.2,248.9z"/>
	<path style="fill:#FC6363;" d="M149.5,299.4c-0.9,0-1.6,0.7-1.6,1.6v45.7c0,0.5,0.2,0.9,0.5,1.2l47.9-48c-0.3-0.3-0.7-0.5-1.1-0.5
		L149.5,299.4L149.5,299.4z"/>
	<path style="fill:#FC6363;" d="M144.6,299.4H98.9c-0.9,0-1.6,0.7-1.6,1.6v45.7c0,0.9,0.7,1.6,1.6,1.6h45.7c0.9,0,1.6-0.7,1.6-1.6
		V301C146.3,300.1,145.5,299.4,144.6,299.4z"/>
	<path style="fill:#FC6363;" d="M144.6,349.9H98.9c-0.9,0-1.6,0.7-1.6,1.6v45.7c0,0.5,0.2,0.9,0.6,1.2l47.9-48
		C145.5,350.1,145.1,349.9,144.6,349.9z"/>
</g>
<g>
	<path style="fill:#7BC116;" d="M346.7,147.8H301c-0.9,0-1.6,0.7-1.6,1.6v45.7c0,0.4,0.1,0.7,0.4,1l47.9-48
		C347.4,147.9,347.1,147.8,346.7,147.8z"/>
	<path style="fill:#7BC116;" d="M301,146.2h45.7c0.9,0,1.6-0.7,1.6-1.6V98.9c0-0.9-0.7-1.6-1.6-1.6H301c-0.9,0-1.6,0.7-1.6,1.6v45.7
		C299.4,145.5,300.1,146.2,301,146.2z"/>
</g>
<path style="fill:#428A96;" d="M245.5,248.9h-45.7c-0.9,0-1.6,0.7-1.6,1.6v45.7c0,0.5,0.2,0.9,0.6,1.2l47.9-48
	C246.4,249,246,248.9,245.5,248.9z"/>
<g>
</g>
<g>
</g>
<g>
</g>
<g>
</g>
<g>
</g>
<g>
</g>
<g>
</g>
<g>
</g>
<g>
</g>
<g>
</g>
<g>
</g>
<g>
</g>
<g>
</g>
<g>
</g>
<g>
</g>
</svg>
